<?xml version="1.0" encoding="utf-8"?>
<!-- Generator: Adobe Illustrator 23.0.1, SVG Export Plug-In . SVG Version: 6.00 Build 0)  -->
<svg version="1.1" id="Layer_1" xmlns="http://www.w3.org/2000/svg" xmlns:xlink="http://www.w3.org/1999/xlink" x="0px" y="0px"
	 viewBox="0 0 18 18" style="enable-background:new 0 0 18 18;" xml:space="preserve">
<style type="text/css">
	.Black{fill:#DAD9D9;}
	.Green{fill:#5ABAA6;}
	.Red{fill:#D26583;}
	.Yellow{fill:#FFD37B;}
	.White{fill:#FFFFFF;}
</style>
<rect x="4" y="4" class="White" width="10" height="10"/>
<path class="Yellow" d="M9,0C4,0,0,4,0,9s4,9,9,9s9-4,9-9S14,0,9,0z M6.5,5C7.3,5,8,5.7,8,6.5S7.3,8,6.5,8S5,7.3,5,6.5S5.7,5,6.5,5z
	 M12,12H6c-0.6,0-1-0.4-1-1s0.4-1,1-1h6c0.6,0,1,0.4,1,1S12.6,12,12,12z M11.5,8C10.7,8,10,7.3,10,6.5S10.7,5,11.5,5S13,5.7,13,6.5
	S12.3,8,11.5,8z"/>
</svg>
