<?xml version="1.0" encoding="utf-8"?>
<!-- Generator: Adobe Illustrator 23.0.1, SVG Export Plug-In . SVG Version: 6.00 Build 0)  -->
<svg version="1.1" id="Layer_1" xmlns="http://www.w3.org/2000/svg" xmlns:xlink="http://www.w3.org/1999/xlink" x="0px" y="0px"
	 viewBox="0 0 18 18" style="enable-background:new 0 0 18 18;" xml:space="preserve">
<style type="text/css">
	.Black{fill:#DAD9D9;}
	.Green{fill:#5ABAA6;}
	.Red{fill:#D26583;}
	.Yellow{fill:#FFD37B;}
	.White{fill:#FFFFFF;}
</style>
<rect x="4" y="4" class="White" width="10" height="10"/>
<path class="Green" d="M9,0C4,0,0,4,0,9s4,9,9,9s9-4,9-9S14,0,9,0z M6.5,5C7.3,5,8,5.7,8,6.5S7.3,8,6.5,8S5,7.3,5,6.5S5.7,5,6.5,5z
	 M12.8,10.3c-0.5,1.6-2,2.7-3.8,2.7s-3.3-1.1-3.8-2.7C5,9.6,5.5,9,6.1,9c0.4,0,0.8,0.2,1,0.6C7.4,10.4,8.1,11,9,11s1.6-0.6,1.9-1.4
	C11,9.2,11.4,9,11.9,9C12.6,9,13.1,9.6,12.8,10.3z M11.5,8C10.7,8,10,7.3,10,6.5S10.7,5,11.5,5S13,5.7,13,6.5S12.3,8,11.5,8z"/>
</svg>
